# xmcd CD database file
#
# Track frame offsets:
#	150
#	18697
#	36491
#	54221
#	71050
#	87640
#	106396
#	122632
#	139381
#	157138
#	175516
#	191901
#	213158
#	225933
#	243514
#	263396
#
# Disc length: 3741 seconds
#
# Revision: 0
# Processed by: cddbd v1.5.2PL0 Copyright (c) Steve Scherf et al.
# Submitted via: CDex 1.70beta2
#
DISCID=e10e9b10
DTITLE=When They Come Back... We Give Back - Various Artists
DYEAR=2010
DGENRE=Country
TTITLE0=Wade Bowen - If We Ever Make It Home
TTITLE1=Stoney LaRue - Down In Flames
TTITLE2=Cross Canadian Ragweed - Long Way Home
TTITLE3=Eli Young Band - Home
TTITLE4=Derek Sholl - When The Come Back
TTITLE5=Reckless Kelly - God For Saken Town
TTITLE6=No Justice - Red Dress
TTITLE7=Aaron Watson - Thanks For The Freedom/Fighting
TTITLE8=Jack Ingram - That's A Man
TTITLE9=Randy Rogers Band - Down And Out
TTITLE10=Cory Morrow - GTMO Blues
TTITLE11=Kevin Fowler - 100% Texan
TTITLE12=Mickey and The Motorcars - Naive
TTITLE13=Bleu Edmondson - Black And White
TTITLE14=Jason Boland and The Stragglers - Time In Hell
TTITLE15=Robert Earl Keen - I'm Coming Home
EXTD=YEAR: 2010
EXTT0=
EXTT1=
EXTT2=
EXTT3=
EXTT4=
EXTT5=
EXTT6=
EXTT7=
EXTT8=
EXTT9=
EXTT10=
EXTT11=
EXTT12=
EXTT13=
EXTT14=
EXTT15=
PLAYORDER=
